<svg xmlns="http://www.w3.org/2000/svg" xmlns:xlink="http://www.w3.org/1999/xlink" width="70" height="54" viewBox="0 0 70 54">
  <defs>
    <linearGradient id="linear-gradient" x1="0.726" y1="1" x2="0.878" gradientUnits="objectBoundingBox">
      <stop offset="0" stop-color="#ff8b00"/>
      <stop offset="1" stop-color="#ffdf07"/>
    </linearGradient>
    <linearGradient id="linear-gradient-2" y1="0.5" x2="1" y2="0.5" gradientUnits="objectBoundingBox">
      <stop offset="0" stop-color="#ffd300"/>
      <stop offset="1" stop-color="#ffa700"/>
    </linearGradient>
    <clipPath id="clip-dw_sjkh_diyiming">
      <rect width="70" height="54"/>
    </clipPath>
  </defs>
  <g id="dw_sjkh_diyiming" clip-path="url(#clip-dw_sjkh_diyiming)">
    <g id="组_5291" data-name="组 5291">
      <path id="路径_859" data-name="路径 859" d="M-1880.168-511.632a3.2,3.2,0,0,0,5.045,0l15.2-15.155-14.564-16.55a5.055,5.055,0,0,0-7.792,0l-13.8,15.687Z" transform="translate(1912.596 545.171)" fill="url(#linear-gradient)"/>
      <path id="路径_858" data-name="路径 858" d="M-1842.6-536.906a3.238,3.238,0,0,0-5.521-1.952l-26.793,24.254a3.715,3.715,0,0,1-5.356,0l-26.792-24.254a3.239,3.239,0,0,0-5.522,1.952c-.006.087-.008.175-.008.263l4.195,41.37a3.867,3.867,0,0,0,3.882,3.853h53.848a3.867,3.867,0,0,0,3.882-3.853l4.195-41.37C-1842.6-536.731-1842.6-536.819-1842.6-536.906Z" transform="translate(1912.596 544.807)" fill="url(#linear-gradient-2)"/>
      <path id="路径_860" data-name="路径 860" d="M-1911.663-525.213l2.453,24.25,11.091-10.911Z" transform="translate(1912.596 542.901)" fill="#ffe477"/>
      <path id="路径_861" data-name="路径 861" d="M-1838.6-525.193l-2.437,24.373-11.115-11.054Z" transform="translate(1907.665 542.901)" fill="#ffce00"/>
    </g>
  </g>
</svg>
